<?xml version="1.0" encoding="utf-8"?>
<svg xmlns="http://www.w3.org/2000/svg" version="1.1" width="1080" height="1080" viewBox="98.453 232.83 884.423 614.34" xmlns:bx="https://boxy-svg.com" preserveAspectRatio="none"><desc>Created with Fabric.js 5.2.4</desc><defs><bx:export><bx:file format="svg"/></bx:export></defs><g transform="matrix(1 0 0 1 540 540)" id="b9b5c836-c25e-4c0e-b797-016d6178c913"/><g transform="matrix(1 0 0 1 540 540)" id="9bc15ec9-bdea-4626-b5ef-19f7af5b5b56"><rect style="stroke: none; stroke-width: 1; stroke-dasharray: none; stroke-linecap: butt; stroke-dashoffset: 0; stroke-linejoin: miter; stroke-miterlimit: 4; fill: rgb(255,255,255); fill-rule: nonzero; opacity: 1; visibility: hidden;" vector-effect="non-scaling-stroke" x="-540" y="-540" rx="0" ry="0" width="1080" height="1080"/></g><g transform="matrix(1 0 0 1 883.19 297.55)"><circle style="stroke: none; stroke-width: 1; stroke-dasharray: none; stroke-linecap: butt; stroke-dashoffset: 0; stroke-linejoin: miter; stroke-miterlimit: 4; fill: rgb(255,101,132); fill-rule: nonzero; opacity: 1;" vector-effect="non-scaling-stroke" cx="0" cy="0" r="47.49974"/></g><g transform="matrix(1 0 0 1 706.46 365.65)"><path style="stroke: none; stroke-width: 1; stroke-dasharray: none; stroke-linecap: butt; stroke-dashoffset: 0; stroke-linejoin: miter; stroke-miterlimit: 4; fill: rgb(63,61,86); fill-rule: nonzero; opacity: 1;" vector-effect="non-scaling-stroke" transform=" translate(-766.46, -275.65)" d="M 765.17412 332.68824 L 727.95812 259.61544000000004 L 765.2876 323.56371 L 765.6265 297.40824000000003 L 740.052 244.58558 L 765.72086 290.49284 L 766.32968 243.45489 L 738.5262700000001 201.17948 L 766.421 236.05784 L 768.4527700000001 150.19296 L 768.4631800000001 149.83635 L 768.4639000000001 150.19896 L 768.14353 259.14596 L 798.8378100000001 215.04333 L 768.23066 268.384 L 769.44286 320.97114 L 769.56846 319.58094 L 804.96258 273.05458 L 769.52664 324.50343 L 769.6802600000001 331.08043 L 769.7394700000001 331.18417999999997 L 769.6954700000001 331.72112999999996 L 771.3003500000001 401.32325 Q 767.82581 401.46824999999995 764.2823500000001 401.44124999999997 L 764.34987 396.02655999999996 L 732.058 342.73008 L 764.41611 390.84979 Z" stroke-linecap="round"/></g><g transform="matrix(1 0 0 1 533.06 407.4)"><path style="stroke: none; stroke-width: 1; stroke-dasharray: none; stroke-linecap: butt; stroke-dashoffset: 0; stroke-linejoin: miter; stroke-miterlimit: 4; fill: rgb(203,203,203); fill-rule: nonzero; opacity: 1;" vector-effect="non-scaling-stroke" transform=" translate(-593.07, -317.4)" d="M 591.77937 374.439 L 554.56337 301.36620000000005 L 591.89283 365.31446000000005 L 592.23175 339.15900000000005 L 566.6572600000001 286.33634000000006 L 592.3261200000001 332.2436000000001 L 592.93496 285.20560000000006 L 565.13156 242.93017000000006 L 593.02623 277.80849000000006 L 595.05798 191.94363000000007 L 595.0684100000001 191.58702000000008 L 595.0691100000001 191.94963000000007 L 594.7487400000001 300.8966300000001 L 625.44293 256.794 L 594.8358400000001 310.13466999999997 L 596.0480600000001 362.72178999999994 L 596.1736800000001 361.33158999999995 L 631.5678000000001 314.80524999999994 L 596.1318700000002 366.25409999999994 L 596.2854600000002 372.83109999999994 L 596.3446900000001 372.9348499999999 L 596.3007400000001 373.4717999999999 L 597.9056200000001 443.07391999999993 Q 594.4311100000001 443.2189199999999 590.8876200000001 443.1919199999999 L 590.95514 437.7772599999999 L 558.66323 384.48077999999987 L 591.02131 432.60051999999985 Z" stroke-linecap="round"/></g><g transform="matrix(1 0 0 1 855.68 354.25)"><path style="stroke: none; stroke-width: 1; stroke-dasharray: none; stroke-linecap: butt; stroke-dashoffset: 0; stroke-linejoin: miter; stroke-miterlimit: 4; fill: rgb(63,61,86); fill-rule: nonzero; opacity: 1;" vector-effect="non-scaling-stroke" transform=" translate(-915.69, -264.25)" d="M 914.40051 321.28774 L 877.18451 248.21493999999998 L 914.514 312.16321 L 914.8529 286.00774 L 889.27836 233.18508000000003 L 914.94722 279.09234000000004 L 915.55604 232.05439000000004 L 887.75268 189.779 L 915.6473500000001 224.65732 L 917.67911 138.79245 L 917.68952 138.43584 L 917.69024 138.79844 L 917.36987 247.74544 L 948.06411 203.64288 L 917.457 256.98349 L 918.66921 309.5706 L 918.79481 308.1804 L 954.189 261.65405 L 918.75307 313.10292 L 918.9066799999999 319.67992 L 918.9658999999999 319.78367 L 918.9218999999999 320.32066999999995 L 920.5268 389.92277999999993 Q 917.0522599999999 390.06782999999996 913.5088 390.0407799999999 L 913.57633 384.62609999999995 L 881.2844 331.32959999999997 L 913.6425 379.44933999999995 Z" stroke-linecap="round"/></g><g transform="matrix(1 0 0 1 540 661.62)"><path style="stroke: none; stroke-width: 1; stroke-dasharray: none; stroke-linecap: butt; stroke-dashoffset: 0; stroke-linejoin: miter; stroke-miterlimit: 4; fill: rgb(241,241,241); fill-rule: nonzero; opacity: 1;" vector-effect="non-scaling-stroke" transform=" translate(-600, -571.61)" d="M 273.74194 572.38927 C 295.4201791019522 556.4093219614402 318.1538938591804 541.9131370405441 341.78760000000034 528.9998599999999 C 407.88707999999997 492.5255 489.17322 461.33786 581.5850800000001 437.17751 Q 591.1107000000001 434.67917 600.7954100000001 432.29308 Q 621.36264 427.2027 642.61279 422.59902 Q 647.86225 421.46682 653.1396500000001 420.34389 Q 682.71311 414.12609 713.4656500000001 408.86262999999997 C 713.8773600000001 408.78774 714.2890700000002 408.72220999999996 714.7101500000001 408.65671999999995 Q 721.9292800000001 407.40757999999994 729.2138500000001 406.24253999999996 C 826.2481500000001 390.47565999999995 931.4045800000001 381.80154 1041.2677 381.67053999999996 C 1042.1753 381.66116999999997 1043.09236 381.66116999999997 1043.99998 381.66116999999997 L 1043.99998 761.56417 L 156 761.56417 C 156 692.68572 198.83734 628.09282 273.74194 572.38927 Z" stroke-linecap="round"/></g><g transform="matrix(1 0 0 1 641.71 705.13)"><path style="stroke: none; stroke-width: 1; stroke-dasharray: none; stroke-linecap: butt; stroke-dashoffset: 0; stroke-linejoin: miter; stroke-miterlimit: 4; fill: rgb(230,62,37); fill-rule: nonzero; opacity: 1;" vector-effect="non-scaling-stroke" transform=" translate(-701.7, -615.12)" d="M 450.18176 615.72264 C 488.02234 587.58544 536.474 562.3864599999999 593.20676 541.13622 Q 602.6527600000001 537.58517 612.40776 534.2025 C 613.31541 533.8843899999999 614.2324000000001 533.56621 615.14939 533.2480899999999 Q 627.57109 528.98119 640.47001 524.9388899999999 Q 662.26762 518.12682 685.3004 512.0633399999999 Q 701.78775 507.7075299999999 718.8553999999999 503.7634699999999 Q 724.3386199999999 502.48155999999994 729.8687899999999 501.2743999999999 Q 742.4402699999998 498.4766399999999 755.3110899999999 495.9221099999999 C 843.035 478.44286 940.85541 468.68327 1044 468.68327 L 1044 761.56419 L 359.40723 761.56419 C 359.40723 708.462 392.43817 658.66283 450.18176 615.72264 Z" stroke-linecap="round"/></g><g transform="matrix(1 0 0 1 677.64 720.03)"><path style="stroke: none; stroke-width: 1; stroke-dasharray: none; stroke-linecap: butt; stroke-dashoffset: 0; stroke-linejoin: miter; stroke-miterlimit: 4; fill: rgb(255,255,255); fill-rule: nonzero; opacity: 1;" vector-effect="non-scaling-stroke" transform=" translate(-737.64, -630.02)" d="M 432.23444 746.36815 L 433.92810000000003 747.1728400000001 C 439.6775529650315 735.2679909876193 446.69895157194173 724.0205737627596 454.86956999999995 713.6271800000001 L 453.39111 712.4762400000001 C 445.1399979961916 722.9794205724721 438.0466918386381 734.3425365020702 432.23444 746.36815 Z M 480.43353 683.09453 L 481.71553 684.4606799999999 C 490.8969775055792 675.92287815486 500.55005309067786 667.9067498524059 510.6292800000001 660.4500599999999 C 511.19074 660.0289799999999 511.76148 659.6078999999999 512.33228 659.1868099999999 L 511.21874999999994 657.6803399999999 C 510.6479499999999 658.1014299999999 510.0772099999999 658.5225099999999 509.50634999999994 658.9529299999999 C 499.37372497469744 666.4528631665188 489.667684377798 674.5126024582046 480.43352999999996 683.0945300000001 Z M 544.465 635.588 L 545.4287400000001 637.188 C 556.3392600000001 630.6005299999999 568.0451300000001 624.12537 580.2095 617.94025 L 579.3580000000001 616.26525 C 567.15619 622.4785 555.41284 628.9818 544.465 635.588 Z M 615.45822 599.3006499999999 L 616.19742 601.0130499999999 C 628.01559 595.87596 640.43265 590.86052 653.08359 586.1163799999999 L 652.42859 584.3665599999999 C 639.74005 589.12 627.30438 594.14482 615.45819 599.30065 Z M 690.07263 571.2197099999998 L 690.6434 572.9976099999999 C 693.9558400000001 571.92149 697.27768 570.8641799999999 700.6369000000001 569.8068099999999 C 709.7883 566.9528099999999 719.2390700000001 564.1456199999999 728.73666 561.48821 L 728.23135 559.6822099999999 C 718.71506 562.34895 709.24557 565.1561399999999 700.0755 568.02883 Q 695.04126 569.60557 690.0726 571.21971 Z M 778.52637 546.8347099999999 C 774.60571 547.7330299999999 770.6569800000001 548.6687599999999 766.8018500000001 549.6045499999999 L 767.24161 551.4198599999999 C 771.0968 550.4934699999999 775.03619 549.5577399999999 778.9568800000001 548.6500799999999 C 782.6716600000001 547.7892399999998 786.3677700000001 546.9471399999999 789.9516000000001 546.1704699999999 C 795.2946000000001 544.98205 800.7217700000001 543.8123699999999 806.0740700000001 542.7082499999999 L 805.6998000000001 540.87425 C 800.3288000000001 541.98772 794.9015200000001 543.1479999999999 789.5492200000001 544.33641 C 785.9653900000001 545.12241 782.25061 545.96452 778.5264000000001 546.83476 Z M 844.85031 533.4072199999998 L 845.17786 535.2506099999998 C 858.06271 532.9954799999998 871.29386 530.8807299999999 884.48755 528.9718599999999 L 884.2161600000001 527.1191399999999 C 871.00375 529.03734 857.76328 531.15209 844.85028 533.40721 Z M 923.7504 521.9633099999999 L 923.96561 523.8253699999999 C 937.00961 522.3095099999999 950.3343 520.9432899999999 963.57474 519.7549399999999 L 963.4063100000001 517.8928799999999 C 950.15648 519.08122 936.81308 520.44743 923.75037 521.9633 Z M 1003.16507 514.8704799999998 L 1003.27734 516.7419399999998 C 1016.4149199999999 515.9091799999998 1029.79573 515.2354699999997 1043.0455299999999 514.7394999999998 L 1042.98003 512.8680399999998 C 1029.70213 513.37334 1016.312 514.047 1003.165 514.87047 Z" stroke-linecap="round"/></g><g transform="matrix(1 0 0 1 744.5 749.11)"><path style="stroke: none; stroke-width: 1; stroke-dasharray: none; stroke-linecap: butt; stroke-dashoffset: 0; stroke-linejoin: miter; stroke-miterlimit: 4; fill: rgb(241,241,241); fill-rule: nonzero; opacity: 1;" vector-effect="non-scaling-stroke" transform=" translate(-804.5, -659.1)" d="M 628.52075 659.52373 C 711.2012 598.03746 866.3064 556.6411 1044 556.6411 L 1044 761.56419 L 565.004 761.56419 C 565.004 724.41606 588.11633 689.56975 628.52075 659.52373 Z" stroke-linecap="round"/></g><g transform="matrix(1 0 0 1 540 756.98)"><path style="stroke: none; stroke-width: 1; stroke-dasharray: none; stroke-linecap: butt; stroke-dashoffset: 0; stroke-linejoin: miter; stroke-miterlimit: 4; fill: rgb(0,0,0); fill-rule: nonzero; opacity: 0.2;" vector-effect="non-scaling-stroke" transform=" translate(-600, -666.98)" d="M 273.74188 572.38927 L 450.18157999999994 615.72258 L 628.5207499999999 659.52373 L 1044 761.56419 L 156 761.56419 C 156 692.68572 198.83734 628.09282 273.74188 572.38927 Z" stroke-linecap="round"/></g></svg>